<svg width="28" height="29" viewBox="0 0 28 29" fill="none" xmlns="http://www.w3.org/2000/svg">
<path d="M14.3931 10.4822C13.5725 10.4004 12.7468 10.5766 12.0292 10.9867C11.3116 11.3969 10.7372 12.0209 10.3845 12.7733C10.0318 13.5257 9.91818 14.3698 10.0591 15.19C10.2 16.0101 10.5887 16.7663 11.1718 17.3549C11.7549 17.9435 12.5039 18.3357 13.3165 18.478C14.129 18.6203 14.9652 18.5055 15.7106 18.1495C16.456 17.7935 17.0742 17.2137 17.4805 16.4893C17.8868 15.765 18.0614 14.9316 17.9804 14.1032C17.888 13.1746 17.4803 12.3068 16.8265 11.6468C16.1728 10.9869 15.3131 10.5754 14.3931 10.4822ZM24.0237 14.5C24.0212 14.9389 23.9893 15.377 23.9281 15.8115L26.7535 18.0485C26.8765 18.1514 26.9594 18.2951 26.9875 18.4539C27.0155 18.6127 26.9869 18.7764 26.9066 18.9159L24.2337 23.5841C24.1525 23.7223 24.0256 23.8271 23.8754 23.88C23.7252 23.933 23.5612 23.9308 23.4125 23.8737L20.6064 22.7331C20.4517 22.6709 20.2841 22.6484 20.1186 22.6677C19.9532 22.687 19.795 22.7474 19.6584 22.8435C19.2301 23.1412 18.7801 23.4056 18.3122 23.6346C18.1651 23.7067 18.0379 23.8144 17.9417 23.9479C17.8456 24.0815 17.7835 24.2369 17.761 24.4004L17.3404 27.4215C17.3128 27.5811 17.2311 27.726 17.1094 27.8315C16.9876 27.937 16.8334 27.9966 16.6729 28H11.3271C11.1693 27.9972 11.0171 27.9403 10.8957 27.8386C10.7743 27.7369 10.6908 27.5965 10.659 27.4404L10.239 24.4238C10.2154 24.2584 10.1517 24.1016 10.0536 23.9671C9.95548 23.8326 9.82596 23.7247 9.67655 23.6529C9.20917 23.4252 8.76068 23.1601 8.33539 22.8599C8.19921 22.7643 8.04159 22.7043 7.87674 22.6855C7.71189 22.6667 7.54499 22.6895 7.39108 22.752L4.58564 23.892C4.43697 23.9491 4.27309 23.9515 4.12287 23.8986C3.97264 23.8458 3.84572 23.7411 3.76445 23.603L1.09151 18.9348C1.01115 18.7953 0.982428 18.6316 1.01047 18.4728C1.03851 18.3139 1.12148 18.1703 1.24462 18.0674L3.63258 16.1749C3.76341 16.0701 3.86623 15.9339 3.93171 15.7788C3.99719 15.6237 4.02326 15.4545 4.00756 15.2867C3.98506 15.0236 3.97131 14.7612 3.97131 14.4981C3.97131 14.235 3.98443 13.9764 4.00756 13.719C4.02155 13.5522 3.9942 13.3844 3.92798 13.2309C3.86175 13.0774 3.75874 12.9429 3.62821 12.8396L1.2415 10.9471C1.12036 10.8437 1.03913 10.7006 1.01205 10.5428C0.984966 10.385 1.01376 10.2226 1.09338 10.0841L3.76632 5.41589C3.8475 5.27773 3.97438 5.17292 4.12461 5.11995C4.27484 5.06698 4.43878 5.06924 4.58752 5.12633L7.39358 6.26689C7.54832 6.32908 7.71593 6.35155 7.88139 6.33229C8.04685 6.31302 8.20499 6.25262 8.34164 6.1565C8.76989 5.85882 9.2199 5.59437 9.68779 5.36542C9.8349 5.29325 9.96213 5.18563 10.0583 5.05207C10.1544 4.9185 10.2165 4.7631 10.239 4.59958L10.6596 1.57848C10.6872 1.41893 10.7689 1.27401 10.8906 1.1685C11.0124 1.06299 11.1666 1.00343 11.3271 1H16.6729C16.8307 1.00276 16.9829 1.05968 17.1043 1.16139C17.2257 1.2631 17.3092 1.40354 17.341 1.55956L17.761 4.57624C17.7846 4.74156 17.8483 4.89844 17.9464 5.03293C18.0445 5.16742 18.174 5.27535 18.3235 5.34713C18.7908 5.57476 19.2393 5.83994 19.6646 6.14009C19.8008 6.23574 19.9584 6.29568 20.1233 6.31451C20.2881 6.33334 20.455 6.31047 20.6089 6.24797L23.4144 5.10804C23.563 5.05089 23.7269 5.04854 23.8771 5.10139C24.0274 5.15424 24.1543 5.25891 24.2356 5.39696L26.9085 10.0652C26.9889 10.2047 27.0176 10.3684 26.9895 10.5272C26.9615 10.6861 26.8785 10.8297 26.7554 10.9326L24.3674 12.8251C24.236 12.9296 24.1326 13.0656 24.0666 13.2207C24.0005 13.3759 23.974 13.5452 23.9893 13.7133C24.0099 13.9745 24.0237 14.2369 24.0237 14.5Z" stroke="black" stroke-width="1.5" stroke-linecap="round" stroke-linejoin="round"/>
</svg>
