<svg width="32" height="27" viewBox="0 0 32 27" fill="none" xmlns="http://www.w3.org/2000/svg">
<path d="M18.9624 7.864C18.9624 6.65433 18.2434 5.56305 17.1394 5.10013C16.0369 4.63722 14.7666 4.89372 13.9218 5.74823C13.077 6.60424 12.8253 7.89131 13.2822 9.00839C13.739 10.127 14.8161 10.8555 16.0099 10.8555C16.7934 10.8555 17.5438 10.5413 18.0981 9.97976C18.6523 9.41819 18.9624 8.6578 18.9624 7.864ZM13.805 7.864C13.805 6.96093 14.3428 6.14587 15.1667 5.79983C15.9905 5.45378 16.9387 5.64502 17.5694 6.284C18.2 6.92297 18.3887 7.88374 18.0472 8.7185C17.7057 9.55325 16.9013 10.0982 16.01 10.0982C14.7937 10.0966 13.8065 9.09644 13.805 7.864ZM31.6139 26.2229H29.3131V13.4902C29.3131 8.6714 26.7756 4.21669 22.6548 1.80652C18.5356 -0.602173 13.4603 -0.602173 9.34102 1.80652C5.22176 4.21673 2.68431 8.6714 2.68431 13.4902V13.5175C2.68281 13.5251 2.68281 13.5327 2.68431 13.5403V26.2229H0.383473C0.172264 26.2229 0 26.3974 0 26.6115C0 26.827 0.172264 27 0.383473 27H4.3831C4.59431 27 4.76657 26.827 4.76657 26.6115C4.76657 26.3974 4.59431 26.2229 4.3831 26.2229H3.4439V13.8787C4.8295 13.8438 6.01136 12.8542 6.30495 11.4806C6.9266 8.44356 8.90087 5.86802 11.651 4.50344C14.4012 3.13897 17.6186 3.13897 20.3688 4.50344C23.1191 5.86791 25.0932 8.44372 25.7148 11.4806C26.0114 12.8527 27.1918 13.8407 28.5759 13.8787V26.2349H23.0964V15.6392C23.9263 15.4647 24.4895 14.6815 24.4011 13.827C24.3113 12.974 23.5982 12.3274 22.7504 12.332H9.26901C9.15816 12.3335 9.05031 12.3441 8.94246 12.3669C8.82262 12.3562 8.70428 12.4033 8.62339 12.4928C8.544 12.5839 8.50955 12.7069 8.53202 12.8268C8.55449 12.9467 8.63088 13.0484 8.73874 13.103C8.84659 13.1561 8.97242 13.1561 9.08027 13.1015C9.14169 13.0893 9.2046 13.0833 9.26901 13.0817H22.7504C22.9901 13.0817 23.2193 13.1758 23.3885 13.3474C23.5578 13.5173 23.6522 13.7496 23.6522 13.9909C23.6507 14.2367 23.5518 14.472 23.378 14.6435C23.2043 14.815 22.9706 14.9091 22.7279 14.9046H9.2688C9.20589 14.9106 9.14298 14.9106 9.08006 14.9046C8.9033 14.9091 8.75201 15.0351 8.71456 15.2112C8.67711 15.3857 8.764 15.5648 8.92278 15.6422V26.2224H6.42272C6.21151 26.2224 6.03925 26.397 6.03925 26.611C6.03925 26.8265 6.21151 26.9995 6.42272 26.9995H31.6165C31.8292 26.9995 32 26.8265 32 26.611C32 26.397 31.8292 26.2224 31.6165 26.2224L31.6139 26.2229ZM26.4474 11.3139C25.7808 8.04463 23.6582 5.27005 20.6999 3.80094C17.7399 2.33176 14.2752 2.33176 11.3167 3.80094C8.35672 5.27012 6.23412 8.04467 5.56765 11.3139C5.34745 12.3308 4.47713 13.0654 3.45107 13.1019C3.60386 8.66076 6.03054 4.62373 9.85315 2.44708C13.6759 0.26907 18.3436 0.26907 22.1661 2.44708C25.9889 4.62358 28.4156 8.66076 28.5682 13.1019C27.5421 13.0654 26.6691 12.3308 26.4474 11.3139ZM9.67043 15.6746H22.3488V26.2229H20.7146V24.7113C20.7146 24.608 20.6741 24.5094 20.6022 24.4365C20.5303 24.3637 20.433 24.3227 20.3311 24.3227H20.066V22.2449C20.066 22.1417 20.027 22.043 19.9536 21.9701C19.8817 21.8973 19.7843 21.8563 19.6825 21.8563H18.2265V19.7739C18.2265 19.6707 18.186 19.5721 18.1141 19.4992C18.0422 19.4248 17.9449 19.3854 17.843 19.3854H14.1656C13.9529 19.3854 13.7821 19.5584 13.7821 19.7739V21.8639H13.3986C13.1859 21.8639 13.0152 22.0369 13.0152 22.2524C13.0152 22.4664 13.1859 22.641 13.3986 22.641H15.6261V24.35H12.6736V23.3361C12.6736 23.1221 12.5014 22.9475 12.2902 22.9475C12.0774 22.9475 11.9067 23.1221 11.9067 23.3361V24.3302H11.676C11.4648 24.3302 11.2925 24.5048 11.2925 24.7188V26.2305H9.67025L9.67043 15.6746ZM12.0521 25.0923H19.9674V26.223H12.0521V25.0923ZM14.5402 21.864V20.155H17.4777V21.864H14.5402ZM17.8537 22.6411H19.3261V24.3501H16.3932V22.6213L17.8537 22.6411Z" fill="black"/>
</svg>
