<svg width="35" height="26" viewBox="0 0 35 26" fill="none" xmlns="http://www.w3.org/2000/svg">
<path d="M34.5073 14.2117L30.2377 9.55884C29.9092 9.2304 29.5261 9.06618 29.0334 9.06618H23.2858C22.9573 9.06618 22.7384 9.28514 22.7384 9.61358V17.1129H19.0161L16.9907 14.3212L20.1109 13.2264C20.3846 13.1169 20.5488 12.8432 20.4393 12.5148C20.1656 11.6937 17.2097 3.20906 16.8265 2.00479L19.454 1.07422C19.7277 0.964742 19.8919 0.691044 19.7824 0.362607C19.6729 0.0889098 19.3993 -0.0753088 19.0708 0.0341701L15.9507 1.12896C15.677 1.23844 15.5127 1.51214 15.6222 1.84057L16.4981 4.35859L0.349911 9.94202C0.185693 9.99676 0.076214 10.1062 0.0214746 10.3252C-0.0332649 10.4894 0.0214745 10.6536 0.130953 10.8178L5.27646 17.4961C5.27646 17.5508 5.27646 17.5508 5.27646 17.6055V21.8205C5.27646 22.1489 5.49542 22.3679 5.82386 22.3679H7.30182C7.30182 24.2838 8.83453 25.8165 10.7504 25.8165C12.6663 25.8165 14.199 24.2838 14.199 22.3679H23.2858H26.2417C26.2417 24.2838 27.7744 25.8165 29.6903 25.8165C31.6062 25.8165 33.1389 24.2838 33.1389 22.3679H34.4526C34.781 22.3679 35 22.1489 35 21.8205V15.5254C35 15.0328 34.8358 14.5949 34.5073 14.2117ZM17.6476 17.0581H8.99875L15.8959 14.7044L17.6476 17.0581ZM16.8265 5.39864L19.235 12.4053L6.20704 16.8939L1.38996 10.7084L16.8265 5.39864ZM6.31651 18.1529H22.6836V21.2731H13.98C13.5421 19.9046 12.2284 18.9193 10.6957 18.8646C9.16297 18.8098 7.84922 19.8499 7.4113 21.2183H6.26178L6.31651 18.1529ZM10.6957 24.7217C9.38192 24.7217 8.34188 23.6816 8.34188 22.3679C8.34188 21.0541 9.38192 20.0141 10.6957 20.0141C12.0094 20.0141 13.0495 21.0541 13.0495 22.3679C13.1042 23.6816 12.0094 24.7217 10.6957 24.7217ZM29.6355 24.7217C28.3218 24.7217 27.2817 23.6816 27.2817 22.3679C27.2817 21.0541 28.3218 20.0141 29.6355 20.0141C30.9493 20.0141 31.9893 21.0541 31.9893 22.3679C31.9893 23.6816 30.9493 24.7217 29.6355 24.7217ZM33.9052 21.2731H32.9199C32.482 19.9046 31.1682 18.9193 29.6355 18.8646C28.1028 18.8646 26.7891 19.8499 26.3512 21.2183H23.7784V17.5508V10.0515H28.9787C29.1429 10.0515 29.2524 10.1062 29.3618 10.2157L33.6315 14.8686C33.7957 15.0328 33.8505 15.2517 33.8505 15.416L33.9052 21.2731Z" fill="black"/>
<path d="M28.7596 11.3652C28.3764 11.0368 27.9385 10.8726 27.4459 10.8726H25.3658C25.0373 10.8726 24.8184 11.0915 24.8184 11.42V16.8939C24.8184 17.2223 25.0373 17.4413 25.3658 17.4413H31.3324C31.6608 17.4413 31.8798 17.2223 31.8798 16.8939V14.978C31.8798 14.3759 31.6061 13.8285 31.1681 13.4453L28.7596 11.3652ZM30.8397 16.3465H25.9679V11.9673H27.5006C27.7196 11.9673 27.9385 12.0221 28.1027 12.1863L30.566 14.2664C30.785 14.4306 30.8944 14.7043 30.8944 14.978L30.8397 16.3465Z" fill="black"/>
<path d="M26.4607 18.0983H26.187C25.8586 18.0983 25.6396 18.3172 25.6396 18.6457C25.6396 18.9741 25.8586 19.1931 26.187 19.1931H26.4607C26.7892 19.1931 27.0081 18.9741 27.0081 18.6457C27.0081 18.3172 26.7892 18.0983 26.4607 18.0983Z" fill="black"/>
<path d="M14.363 12.4602C14.4725 12.7339 14.801 12.8982 15.0746 12.7887L17.319 12.0223C17.5927 11.9128 17.7569 11.6392 17.6474 11.3107L16.2242 7.25999C16.1694 7.09578 16.06 6.9863 15.9505 6.93156C15.841 6.87682 15.6768 6.87682 15.5126 6.93156L13.2682 7.69791C12.9945 7.80739 12.8303 8.08109 12.9398 8.40952L14.363 12.4602ZM15.3483 8.13583L16.3884 11.1465L15.1841 11.5297L14.1441 8.519L15.3483 8.13583Z" fill="black"/>
<path d="M10.2031 13.8832C10.3125 14.1569 10.641 14.3211 10.9147 14.2116L13.159 13.4453C13.4327 13.3358 13.5969 13.0621 13.4874 12.7336L12.0095 8.68292C11.9 8.40922 11.6263 8.245 11.2978 8.35448L9.10826 9.12083C8.94404 9.17557 8.83456 9.28505 8.77982 9.39453C8.72508 9.50401 8.72508 9.66823 8.77982 9.83245L10.2031 13.8832ZM11.1884 9.55875L12.2284 12.5694L11.0241 12.9526L9.98409 9.94193L11.1884 9.55875Z" fill="black"/>
<path d="M6.69958 15.6352L8.94389 14.8688C9.21759 14.7594 9.38181 14.4857 9.27233 14.1572L7.8491 10.1065C7.73963 9.83281 7.46593 9.66859 7.13749 9.77807L4.89317 10.5444C4.72895 10.5992 4.61948 10.7086 4.56474 10.8181C4.51 10.9276 4.51 11.0918 4.56474 11.256L5.98796 15.3068C6.09744 15.5805 6.42588 15.7447 6.69958 15.6352ZM5.82374 11.4203L7.02801 11.0371L8.06806 14.0477L6.86379 14.4309L5.82374 11.4203Z" fill="black"/>
</svg>
